{
  "accessors": [
    {
      "bufferView": 2,
      "componentType": 5126,
      "count": 37420,
      "max": [
        12.746210098266602,
        12.315690040588379,
        3.842360019683838
      ],
      "min": [
        -11.508540153503418,
        -12.582819938659668,
        -0.002580000087618828
      ],
      "type": "VEC3"
    },
    {
      "bufferView": 2,
      "byteOffset": 449040,
      "componentType": 5126,
      "count": 37420,
      "type": "VEC3"
    },
    {
      "bufferView": 3,
      "componentType": 5126,
      "count": 37420,
      "type": "VEC4"
    },
    {
      "bufferView": 1,
      "componentType": 5126,
      "count": 37420,
      "type": "VEC2"
    },
    {
      "bufferView": 0,
      "componentType": 5125,
      "count": 64233,
      "type": "SCALAR"
    },
    {
      "bufferView": 2,
      "byteOffset": 898080,
      "componentType": 5126,
      "count": 16,
      "max": [
        11.454750061035156,
        10.39706039428711,
        0.019999999552965164
      ],
      "min": [
        -7.919169902801514,
        -9.5095796585083,
        0.0
      ],
      "type": "VEC3"
    },
    {
      "bufferView": 2,
      "byteOffset": 898272,
      "componentType": 5126,
      "count": 16,
      "type": "VEC3"
    },
    {
      "bufferView": 1,
      "byteOffset": 299360,
      "componentType": 5126,
      "count": 16,
      "type": "VEC2"
    },
    {
      "bufferView": 0,
      "byteOffset": 256932,
      "componentType": 5125,
      "count": 36,
      "type": "SCALAR"
    }
  ],
  "asset": {
    "generator": "fab-model-conversion",
    "version": "2.0"
  },
  "bufferViews": [
    {
      "buffer": 0,
      "byteLength": 257076,
      "target": 34963
    },
    {
      "buffer": 0,
      "byteLength": 299488,
      "byteOffset": 257076,
      "byteStride": 8,
      "target": 34962
    },
    {
      "buffer": 0,
      "byteLength": 898464,
      "byteOffset": 556564,
      "byteStride": 12,
      "target": 34962
    },
    {
      "buffer": 0,
      "byteLength": 598720,
      "byteOffset": 1455028,
      "byteStride": 16,
      "target": 34962
    }
  ],
  "buffers": [
    {
      "byteLength": 2053748,
      "uri": "scene.bin"
    }
  ],
  "images": [
    {
      "uri": "textures/Matriau.002_baseColor.png"
    },
    {
      "uri": "textures/Matriau_baseColor.png"
    },
    {
      "uri": "textures/Matriau_metallicRoughness.png"
    },
    {
      "uri": "textures/Matriau_normal.png"
    }
  ],
  "materials": [
    {
      "doubleSided": true,
      "name": "Matriau.002",
      "pbrMetallicRoughness": {
        "baseColorTexture": {
          "index": 0
        },
        "roughnessFactor": 0.0
      }
    },
    {
      "alphaMode": "BLEND",
      "name": "Matriau",
      "normalTexture": {
        "index": 3
      },
      "pbrMetallicRoughness": {
        "baseColorTexture": {
          "index": 1
        },
        "metallicRoughnessTexture": {
          "index": 2
        }
      }
    }
  ],
  "meshes": [
    {
      "name": "Yankee Stadium_0",
      "primitives": [
        {
          "attributes": {
            "NORMAL": 1,
            "POSITION": 0,
            "TANGENT": 2,
            "TEXCOORD_0": 3
          },
          "indices": 4,
          "material": 1,
          "mode": 4
        }
      ]
    },
    {
      "name": "baseball field_0",
      "primitives": [
        {
          "attributes": {
            "NORMAL": 6,
            "POSITION": 5,
            "TEXCOORD_0": 7
          },
          "indices": 8,
          "material": 0,
          "mode": 4
        }
      ]
    }
  ],
  "nodes": [
    {
      "children": [
        1
      ],
      "matrix": [
        1.0,
        0.0,
        0.0,
        0.0,
        0.0,
        2.220446049250313e-16,
        -1.0,
        0.0,
        0.0,
        1.0,
        2.220446049250313e-16,
        0.0,
        0.0,
        0.0,
        0.0,
        1.0
      ],
      "name": "Sketchfab_model"
    },
    {
      "children": [
        2,
        4
      ],
      "name": "Root"
    },
    {
      "children": [
        3
      ],
      "name": "Yankee Stadium"
    },
    {
      "mesh": 0,
      "name": "Yankee Stadium_0"
    },
    {
      "children": [
        5
      ],
      "name": "baseball field"
    },
    {
      "mesh": 1,
      "name": "baseball field_0"
    }
  ],
  "samplers": [
    {
      "magFilter": 9729,
      "minFilter": 9987,
      "wrapS": 10497,
      "wrapT": 10497
    }
  ],
  "scene": 0,
  "scenes": [
    {
      "name": "Sketchfab_Scene",
      "nodes": [
        0
      ]
    }
  ],
  "textures": [
    {
      "sampler": 0,
      "source": 0
    },
    {
      "sampler": 0,
      "source": 1
    },
    {
      "sampler": 0,
      "source": 2
    },
    {
      "sampler": 0,
      "source": 3
    }
  ]
}
